<?xml version="1.0"?>
<svg xmlns="http://www.w3.org/2000/svg" xmlns:xlink="http://www.w3.org/1999/xlink" version="1.1" viewBox="0 0 210 210" width="64px" height="64px"><g fill="none" fill-rule="nonzero" stroke="none" stroke-width="1" stroke-linecap="butt" stroke-linejoin="miter" stroke-miterlimit="10" stroke-dasharray="" stroke-dashoffset="0" font-family="none" font-weight="none" font-size="none" text-anchor="none" style="mix-blend-mode: normal"><path d="M0,210v-210h210v210z" fill="none"/><g fill="#ffffff"><g id="surface1"><path d="M101.71875,13.125c-20.55908,0 -38.83667,12.91992 -45.98877,31.88965c-0.0769,0.12818 -0.17944,0.23071 -0.24353,0.3717c-0.11536,0.34607 -0.19226,0.69214 -0.32043,1.02539c-6.48559,-1.01257 -12.86865,-0.3717 -18.98254,1.93543c-16.08582,6.0498 -26.66016,21.2384 -26.32691,37.78564c0.37171,18.45703 13.76587,33.9148 31.21033,37.65747c0.07691,0.02563 0.15381,0.0769 0.24353,0.10254c0.15381,0.03845 0.32043,0.03845 0.48706,0.0769c0.57678,0.10254 1.1792,0.17945 1.7688,0.25635c0.62805,0.10254 1.2561,0.21789 1.89697,0.26916c0.05127,0.01282 0.11536,0.02564 0.17944,0.03845l-5.6012,61.61316c-0.24353,2.74292 0.67932,5.48584 2.52502,7.5238c1.87134,2.03796 4.51172,3.20434 7.26746,3.20434h103.76953c2.75574,0 5.39612,-1.16638 7.26746,-3.20434c1.85852,-2.03796 2.76855,-4.78089 2.52502,-7.5238l-5.6012,-61.62598c0.05127,-0.01282 0.11536,-0.01282 0.16663,-0.02564c1.16638,-0.10254 2.31995,-0.26916 3.46069,-0.47424c0.03845,-0.01282 0.0769,-0.02563 0.11536,-0.03845c2.10205,-0.38452 4.17847,-0.94848 6.21643,-1.69189c0.07691,-0.02563 0.14099,-0.08972 0.21789,-0.12817c14.68872,-5.54993 25.33997,-19.66187 25.62195,-36.17066c0.28198,-16.52161 -10.31799,-31.65893 -26.37817,-37.67029c-6.11389,-2.2815 -12.48413,-2.90955 -18.96973,-1.90979c-6.75476,-19.73877 -25.46814,-33.28674 -46.5271,-33.28674zM101.71875,19.6875c19.13635,0 36.04248,12.90711 41.10535,31.37695c0.46143,1.70471 2.17895,2.7301 3.9093,2.33277c6.33179,-1.48682 12.27905,-1.14075 18.18787,1.06384c13.66333,5.12695 22.3407,17.45728 22.10998,31.41541c-0.24353,14.17603 -9.65149,26.21155 -22.45605,30.51819c-0.84595,0.28198 -1.67908,0.52552 -2.55066,0.74341c-0.3717,0.08972 -0.74341,0.20508 -1.12793,0.28198c-1.29455,0.26917 -2.61475,0.44861 -3.94775,0.56396c-0.2948,0.02564 -0.5896,0.03845 -0.89722,0.05127c-2.81982,0.15381 -5.66528,-0.01282 -8.44666,-0.57678c-1.78162,-0.35889 -3.51196,0.79468 -3.87085,2.56348c-0.35889,1.7688 0.78186,3.51196 2.56348,3.87085c1.61499,0.33325 3.25561,0.5127 4.90906,0.64087l5.65247,62.20276c0.08972,0.92285 -0.20508,1.82007 -0.84595,2.49939c-0.62805,0.70496 -1.48682,1.07666 -2.40967,1.07666h-103.76953c-0.92285,0 -1.78162,-0.3717 -2.40967,-1.07666c-0.64087,-0.67932 -0.93567,-1.57654 -0.84595,-2.49939l2.0636,-22.67395h69.48303c1.80725,0 3.28125,-1.46118 3.28125,-3.28125c0,-1.82007 -1.474,-3.28125 -3.28125,-3.28125h-68.89343l2.99927,-32.94067c3.60168,-0.26917 7.12646,-1.02539 10.52307,-2.26868c1.69189,-0.61523 2.57629,-2.49939 1.94824,-4.2041c-0.62805,-1.70471 -2.51221,-2.57629 -4.2041,-1.96106c-4.05029,1.48682 -8.4082,2.11487 -12.74048,1.92261c-0.35889,-0.01282 -0.73059,-0.02564 -1.08948,-0.05127c-1.20483,-0.08972 -2.39685,-0.25635 -3.57605,-0.47425c-14.86816,-2.85827 -26.36536,-15.90637 -26.68579,-31.53076c-0.28198,-13.98376 8.38257,-26.33972 22.08435,-31.50513c3.52478,-1.33301 7.0752,-1.9867 10.71533,-1.9867c1.39709,0 2.81982,0.11536 4.24255,0.30762c-0.60242,3.12744 -0.94849,6.30615 -0.94849,9.53613c0,1.1792 0.03845,2.3584 0.11536,3.52478c0.12818,1.71753 1.57654,3.03772 3.28125,3.03772c0.07691,0 0.15381,0 0.24353,0c1.80725,-0.12817 3.15308,-1.70471 3.0249,-3.49914c-0.06409,-1.01257 -0.10254,-2.03796 -0.10254,-3.06336c0,-3.76831 0.48706,-7.47254 1.44836,-11.0614c0.02564,-0.0769 0.08972,-0.14099 0.10254,-0.21789c5.07568,-18.46985 21.969,-31.37695 41.10535,-31.37695zM105.8075,29.7876c-1.80725,-0.25635 -3.43506,1.05103 -3.66577,2.84546c-0.21789,1.80725 1.06384,3.43506 2.85828,3.66577c4.24255,0.52551 8.3313,2.10205 11.83045,4.5758c0.57678,0.39734 1.23047,0.60242 1.89697,0.60242c1.02539,0 2.03796,-0.48706 2.67883,-1.38428c1.03821,-1.48682 0.69214,-3.5376 -0.78186,-4.5758c-4.38355,-3.08899 -9.5105,-5.07568 -14.81689,-5.72937zM131.25,157.5c-1.80725,0 -3.28125,1.46118 -3.28125,3.28125c0,1.82007 1.474,3.28125 3.28125,3.28125h13.125c1.80725,0 3.28125,-1.46118 3.28125,-3.28125c0,-1.82007 -1.474,-3.28125 -3.28125,-3.28125zM59.0625,170.625c-1.80725,0 -3.28125,1.46118 -3.28125,3.28125v6.5625c0,1.82007 1.474,3.28125 3.28125,3.28125c1.80725,0 3.28125,-1.46118 3.28125,-3.28125v-6.5625c0,-1.82007 -1.474,-3.28125 -3.28125,-3.28125zM75.46875,170.625c-1.80725,0 -3.28125,1.46118 -3.28125,3.28125v6.5625c0,1.82007 1.474,3.28125 3.28125,3.28125c1.80725,0 3.28125,-1.46118 3.28125,-3.28125v-6.5625c0,-1.82007 -1.474,-3.28125 -3.28125,-3.28125zM91.875,170.625c-1.80725,0 -3.28125,1.46118 -3.28125,3.28125v6.5625c0,1.82007 1.474,3.28125 3.28125,3.28125c1.80725,0 3.28125,-1.46118 3.28125,-3.28125v-6.5625c0,-1.82007 -1.474,-3.28125 -3.28125,-3.28125zM111.5625,170.625c-1.80725,0 -3.28125,1.46118 -3.28125,3.28125v6.5625c0,1.82007 1.474,3.28125 3.28125,3.28125c1.80725,0 3.28125,-1.46118 3.28125,-3.28125v-6.5625c0,-1.82007 -1.474,-3.28125 -3.28125,-3.28125zM127.96875,170.625c-1.80725,0 -3.28125,1.46118 -3.28125,3.28125v6.5625c0,1.82007 1.474,3.28125 3.28125,3.28125c1.80725,0 3.28125,-1.46118 3.28125,-3.28125v-6.5625c0,-1.82007 -1.474,-3.28125 -3.28125,-3.28125zM144.375,170.625c-1.80725,0 -3.28125,1.46118 -3.28125,3.28125v6.5625c0,1.82007 1.474,3.28125 3.28125,3.28125c1.80725,0 3.28125,-1.46118 3.28125,-3.28125v-6.5625c0,-1.82007 -1.474,-3.28125 -3.28125,-3.28125z"/></g></g></g></svg>
