<?xml version="1.0"?>
<svg xmlns="http://www.w3.org/2000/svg" xmlns:xlink="http://www.w3.org/1999/xlink" version="1.1" viewBox="0 0 210 210" width="64px" height="64px"><g fill="none" fill-rule="nonzero" stroke="none" stroke-width="1" stroke-linecap="butt" stroke-linejoin="miter" stroke-miterlimit="10" stroke-dasharray="" stroke-dashoffset="0" font-family="none" font-weight="none" font-size="none" text-anchor="none" style="mix-blend-mode: normal"><path d="M0,210v-210h210v210z" fill="none"/><g fill="#ffffff"><g id="surface1"><path d="M174.98291,14.13757c-1.66626,0.12817 -3.3197,0.67932 -4.78088,1.66626l-44.54041,30.18494c-6.29334,4.25537 -8.81836,12.20215 -6.15234,19.32861l4.44763,11.88171l-16.61133,15.16296l-72.1875,-72.1875c-1.34582,-1.33301 -3.26843,-1.96106 -5.13977,-1.65344c-1.87134,0.30762 -3.49915,1.49964 -4.34509,3.19153c-10.75378,21.52038 -6.54968,47.38586 10.45898,64.39453l37.24731,37.26013l-44.37378,40.52857c-3.34534,3.03772 -5.24231,7.21619 -5.34485,11.74072c-0.10254,4.52454 1.60217,8.76709 4.80652,11.97143l3.78113,3.78113c3.10181,3.10181 7.20337,4.80652 11.58691,4.80652c0.11536,0 0.25635,-0.01282 0.3717,-0.01282c4.52454,-0.10254 8.69019,-1.99951 11.74072,-5.34485l49.01367,-53.66638l50.50049,53.76892c3.07617,3.26843 7.229,5.10132 11.71509,5.16541h0.25635c4.38354,0 8.48511,-1.69189 11.59973,-4.80652l4.02466,-4.02466c3.17871,-3.16589 4.88342,-7.39563 4.80652,-11.88171c-0.0769,-4.47327 -1.92261,-8.63891 -5.19104,-11.70227l-54.97375,-51.41052l14.93225,-16.35498l11.48438,4.4989c1.97388,0.76904 4.01184,1.14075 6.02417,1.14075c5.29358,0 10.3949,-2.58911 13.52234,-7.20337l30.3772,-44.70703c2.64038,-3.89648 2.1405,-9.15161 -1.19202,-12.48413l-20.17456,-20.17456c-2.07641,-2.08923 -4.90906,-3.06336 -7.69043,-2.85828zM176.03394,20.68726c0.74341,0.0769 1.44836,0.39734 2.01233,0.94848l3.12744,3.12744l-32.49207,32.49207c-1.28174,1.28174 -1.28174,3.34534 0,4.62707c0.64087,0.64087 1.48682,0.97412 2.31995,0.97412c0.84595,0 1.69189,-0.33325 2.33277,-0.97412l32.46643,-32.47925l4.65271,4.63989l-32.49207,32.49207c-1.28174,1.28174 -1.28174,3.34534 0,4.62707c0.64087,0.64087 1.474,0.97412 2.31995,0.97412c0.84595,0 1.67908,-0.33325 2.31995,-0.97412l32.47925,-32.47925l3.12744,3.12744c1.11511,1.11511 1.28174,2.87109 0.39734,4.16565l-30.36438,44.70703c-2.60193,3.81958 -7.42127,5.31921 -11.72791,3.64014l-13.59924,-5.31921c-0.01282,-0.01282 -0.03845,-0.01282 -0.05127,-0.01282c-0.25635,-0.10254 -0.52552,-0.11536 -0.79468,-0.14099c-0.16663,-0.02563 -0.32043,-0.08972 -0.46143,-0.0769c-0.20508,0.01282 -0.39734,0.08972 -0.5896,0.12817c-0.2179,0.05127 -0.43579,0.07691 -0.64087,0.15381c-0.12817,0.06409 -0.23071,0.17945 -0.35889,0.25635c-0.23071,0.15381 -0.47424,0.28198 -0.6665,0.49988c-0.02563,0.01282 -0.03845,0.01282 -0.05127,0.02563l-16.39343,17.94434l-2.23022,-2.07641l-8.69019,-8.703l18.03406,-16.45752c0,0 0,0 0.01282,-0.01282c0.25635,-0.24353 0.44861,-0.53833 0.61523,-0.84595c0.03845,-0.06409 0.10254,-0.12817 0.14099,-0.19226c0.10254,-0.23071 0.12818,-0.49988 0.17944,-0.75623c0.02563,-0.15381 0.10254,-0.30762 0.11536,-0.46143c0,-0.10254 -0.03845,-0.20508 -0.05127,-0.2948c-0.01282,-0.33325 -0.03845,-0.6665 -0.15381,-0.97412c0,-0.01282 0,-0.01282 0,-0.02563l-5.22949,-13.97095c-1.60217,-4.26819 -0.07691,-9.03625 3.70422,-11.58691l44.52759,-30.17212c0.65368,-0.44861 1.40991,-0.62805 2.15332,-0.56396zM31.14624,25.45532l81.72363,81.71081l-28.8263,14.41956c-1.2561,0.62805 -2.78137,0.38452 -3.78113,-0.61523l-3.6145,-3.6145l4.63989,-4.63989c1.28174,-1.28174 1.28174,-3.35816 0,-4.63989c-1.28174,-1.28174 -3.35816,-1.28174 -4.63989,0l-4.63989,4.63989l-6.95984,-6.95984l4.63989,-4.65271c1.28174,-1.28174 1.28174,-3.35815 0,-4.62707c-1.28174,-1.29455 -3.35815,-1.29455 -4.63989,0l-4.63989,4.63989l-6.97266,-6.97266l4.65271,-4.62707c1.28174,-1.29455 1.28174,-3.35815 0,-4.65271c-1.29455,-1.28174 -3.35815,-1.28174 -4.65271,0l-4.62707,4.65271l-6.97266,-6.97266l4.65271,-4.62707c1.28174,-1.29455 1.28174,-3.35816 0,-4.65271c-1.29455,-1.28174 -3.35816,-1.28174 -4.65271,0l-4.422,4.44763c-2.15332,-2.64038 -4.01184,-5.44739 -5.54993,-8.39539l3.01208,-3.01209c1.29456,-1.28174 1.29456,-3.34534 0,-4.62707c-1.28174,-1.29455 -3.34534,-1.29455 -4.62707,0l-1.16638,1.15357c-4.17847,-11.98425 -3.65295,-25.40405 2.0636,-37.37549zM117.8302,112.02393l60.35706,56.46057c1.96106,1.83289 3.07617,4.33228 3.11462,7.02393c0.05127,2.69165 -0.97412,5.22949 -2.88391,7.12646l-4.02466,4.03748c-1.89697,1.89697 -4.47327,2.93518 -7.11365,2.87109c-2.69165,-0.03845 -5.17822,-1.14075 -7.02393,-3.08899l-61.11328,-65.07385zM93.00293,124.44397l7.4469,7.93396l-49.33411,54.03809c-1.83289,1.99951 -4.33227,3.14026 -7.04956,3.20435c-2.73011,0.03845 -5.26795,-0.9613 -7.19055,-2.88391l-3.76831,-3.76831c-1.92261,-1.92261 -2.948,-4.47327 -2.88391,-7.19055c0.06409,-2.71729 1.20483,-5.21668 3.20434,-7.04956l45.06592,-41.1438c2.66602,1.21765 5.78064,1.23047 8.49793,-0.12818zM136.97937,138.63281c-0.83313,0 -1.67908,0.33325 -2.31995,0.97412c-1.28174,1.28174 -1.28174,3.35816 0,4.63989l5.4602,5.4602c0.64087,0.62805 1.474,0.9613 2.31995,0.9613c0.84595,0 1.67908,-0.33325 2.31995,-0.9613c1.28174,-1.28174 1.28174,-3.35815 0,-4.63989l-5.46021,-5.46021c-0.64087,-0.64087 -1.48682,-0.97412 -2.31995,-0.97412zM152.43713,154.10339c-0.83313,0 -1.67907,0.32043 -2.31995,0.9613c-1.28174,1.28174 -1.28174,3.35815 0,4.63989l18.99536,18.99536c0.64087,0.64087 1.474,0.9613 2.31995,0.9613c0.84595,0 1.67908,-0.32043 2.31995,-0.9613c1.28174,-1.28174 1.28174,-3.35816 0,-4.63989l-18.99536,-18.99536c-0.64087,-0.64087 -1.48682,-0.9613 -2.31995,-0.9613z"/></g></g></g></svg>
