<?xml version="1.0"?>
<svg xmlns="http://www.w3.org/2000/svg" xmlns:xlink="http://www.w3.org/1999/xlink" version="1.1" viewBox="0 0 210 210" width="64px" height="64px"><g fill="none" fill-rule="nonzero" stroke="none" stroke-width="1" stroke-linecap="butt" stroke-linejoin="miter" stroke-miterlimit="10" stroke-dasharray="" stroke-dashoffset="0" font-family="none" font-weight="none" font-size="none" text-anchor="none" style="mix-blend-mode: normal"><path d="M0,210v-210h210v210z" fill="none"/><g fill="#ffffff"><path d="M171.04156,7.19055c-3.45434,0.0766 -7.11072,0.46932 -10.92682,1.19202c-14.52937,2.76281 -28.77123,9.97767 -38.09326,19.30298c-13.89937,13.89938 -17.33367,30.26727 -9.61945,46.16821l-93.93219,85.76752c-3.34031,3.04828 -5.23672,7.21916 -5.33844,11.74072c-0.10172,4.52156 1.60089,8.77863 4.80011,11.97785l8.41461,8.41461c3.10734,3.10734 7.20973,4.80652 11.58691,4.80652c0.12797,0 0.25655,-0.00313 0.38452,-0.00641c4.52156,-0.10172 8.69557,-1.99813 11.74713,-5.33844l85.74188,-93.76556c15.95672,7.97016 32.47976,4.61687 46.53992,-9.44c9.31875,-9.31875 16.53063,-23.56045 19.29016,-38.09967c2.89734,-15.26766 0.5391,-28.04367 -6.46637,-35.04913c-5.26148,-5.26395 -13.76572,-7.90099 -24.12872,-7.6712zM172.25281,13.74023c7.99969,0 14.50415,1.98798 18.27759,5.76141c5.36484,5.36484 7.10693,16.27674 4.65912,29.18518c-2.52656,13.29891 -9.05994,26.26087 -17.48291,34.68384c-11.89781,11.89781 -25.73797,14.81797 -38.97125,8.20953c-2.69391,-1.34859 -5.85862,-0.78509 -7.86346,1.40351l-7.14569,7.8186l-14.84253,-14.84894l7.94678,-7.25464c2.15578,-1.97203 2.73492,-5.09906 1.43555,-7.79297c-4.49531,-9.27281 -6.6918,-23.49314 8.39538,-38.58032c8.42953,-8.42953 21.39493,-14.96916 34.67743,-17.49573c3.84891,-0.73172 7.51463,-1.08948 10.914,-1.08948zM168.15765,20.52704c-1.99131,0.06727 -4.0748,0.30018 -6.24207,0.68573c-1.78172,0.31828 -2.9682,2.01535 -2.6532,3.80035c0.28219,1.58813 1.66498,2.71088 3.22357,2.71088c0.19031,0 0.38632,-0.01518 0.58319,-0.05127c3.59297,-0.63984 7.00531,-0.77217 9.85016,-0.3653c1.79484,0.25922 3.45797,-0.99622 3.71063,-2.78778c0.25594,-1.79484 -0.99294,-3.45469 -2.78778,-3.71063c-1.79156,-0.2543 -3.6932,-0.34925 -5.68451,-0.28198zM148.98926,25.50659c-0.42574,0.01861 -0.85318,0.11961 -1.26251,0.31403c-5.34844,2.54625 -10.13496,5.85708 -13.84277,9.56818c-1.12547,1.12219 -2.18213,2.29836 -3.14026,3.49274c-1.13531,1.41422 -0.91121,3.48223 0.50629,4.61426c0.60703,0.48563 1.32578,0.71777 2.04437,0.71777c0.96141,0 1.91707,-0.42 2.56348,-1.23047c0.80719,-1.00734 1.70148,-1.99956 2.65961,-2.9544c3.18938,-3.18937 7.35005,-6.05206 12.02911,-8.28003c1.63734,-0.78094 2.33184,-2.73338 1.55091,-4.37073c-0.58324,-1.22555 -1.83099,-1.92717 -3.10822,-1.87134zM104.02588,90.38818l15.27191,15.2655l-4.42841,4.85779l-15.68848,-15.69489zM94.32953,99.2514l16.11145,16.11145l-65.22125,71.43127c-1.83094,2.00484 -4.33284,3.142 -7.04315,3.20435c-2.66438,0.03938 -5.26461,-0.95797 -7.18414,-2.8775l-8.41461,-8.41461c-1.91953,-1.91953 -2.94297,-4.47696 -2.88391,-7.19055c0.06234,-2.71359 1.1995,-5.21221 3.20435,-7.04315zM82.46704,119.3042c-0.83918,0 -1.67846,0.31982 -2.31995,0.9613c-1.28297,1.28297 -1.28297,3.35692 0,4.63989l4.63989,4.63989c0.63984,0.63984 1.47995,0.9613 2.31995,0.9613c0.84,0 1.6801,-0.32146 2.31995,-0.9613c1.28297,-1.28297 1.28297,-3.35693 0,-4.63989l-4.63989,-4.63989c-0.64148,-0.64148 -1.48077,-0.9613 -2.31995,-0.9613zM70.86731,130.90393c-0.83918,0 -1.67846,0.31982 -2.31995,0.9613c-1.28297,1.27969 -1.28297,3.35693 0,4.63989l4.63989,4.63989c0.63984,0.63984 1.47995,0.9613 2.31995,0.9613c0.84,0 1.6801,-0.32146 2.31995,-0.9613c1.28297,-1.27969 1.28297,-3.35693 0,-4.63989l-4.63989,-4.63989c-0.64149,-0.64148 -1.48077,-0.9613 -2.31995,-0.9613zM59.26117,142.50366c-0.83918,0 -1.67846,0.32146 -2.31995,0.9613c-1.28297,1.27969 -1.28297,3.35693 0,4.63989l4.6463,4.63989c0.63984,0.63984 1.47995,0.9613 2.31995,0.9613c0.84,0 1.6801,-0.32146 2.31995,-0.9613c1.28297,-1.28297 1.28297,-3.36333 0,-4.6463l-4.6463,-4.63349c-0.64148,-0.63984 -1.48077,-0.9613 -2.31995,-0.9613zM47.66144,154.10339c-0.83918,0 -1.67846,0.31982 -2.31995,0.9613c-1.28297,1.28297 -1.28297,3.35693 0,4.63989l4.63989,4.63989c0.63984,0.63984 1.47995,0.9613 2.31995,0.9613c0.84,0 1.6801,-0.32146 2.31995,-0.9613c1.28297,-1.28297 1.28297,-3.35693 0,-4.63989l-4.63989,-4.63989c-0.64148,-0.64148 -1.48077,-0.9613 -2.31995,-0.9613zM36.06171,165.70313c-0.83918,0 -1.67846,0.32623 -2.31995,0.96771c-1.28297,1.28297 -1.28297,3.35051 0,4.63348l4.63989,4.63989c0.63984,0.63984 1.47995,0.9613 2.31995,0.9613c0.84,0 1.6801,-0.32146 2.31995,-0.9613c1.28297,-1.28297 1.28297,-3.35693 0,-4.63989l-4.63989,-4.63348c-0.64148,-0.64148 -1.48077,-0.96771 -2.31995,-0.96771z"/></g></g></svg>
