<?xml version="1.0"?>
<svg xmlns="http://www.w3.org/2000/svg" xmlns:xlink="http://www.w3.org/1999/xlink" version="1.1" viewBox="0 0 226 226" width="64px" height="64px"><g fill="none" fill-rule="nonzero" stroke="none" stroke-width="1" stroke-linecap="butt" stroke-linejoin="miter" stroke-miterlimit="10" stroke-dasharray="" stroke-dashoffset="0" font-family="none" font-weight="none" font-size="none" text-anchor="none" style="mix-blend-mode: normal"><path d="M0,226v-226h226v226z" fill="none"/><g fill="#ffffff"><g id="surface1"><path d="M109.46875,7.0625c-56.45862,0 -102.40625,45.94763 -102.40625,102.40625c0,56.45862 45.94763,102.40625 102.40625,102.40625c56.45862,0 102.40625,-45.94763 102.40625,-102.40625c0,-56.45862 -45.94763,-102.40625 -102.40625,-102.40625zM109.46875,14.125c52.56873,0 95.34375,42.77502 95.34375,95.34375c0,52.56873 -42.77502,95.34375 -95.34375,95.34375c-52.56873,0 -95.34375,-42.77502 -95.34375,-95.34375c0,-52.56873 42.77502,-95.34375 95.34375,-95.34375zM107.92383,28.27759c-20.80127,0.42761 -40.96802,8.82813 -55.89307,23.75317c-31.65711,31.6709 -31.65711,83.19129 0,114.86218c0.6897,0.6897 1.6001,1.03455 2.4967,1.03455c0.9104,0 1.8208,-0.34485 2.5105,-1.03455c1.37939,-1.37939 1.37939,-3.61402 0,-4.99341c-28.9259,-28.91211 -28.91211,-75.94946 0,-104.86157c16.75964,-16.77344 40.7749,-24.55322 64.22461,-20.78748c1.91736,0.31726 3.72436,-1.00696 4.04163,-2.92432c0.31726,-1.93115 -1.00696,-3.75195 -2.92432,-4.05542c-4.82788,-0.77246 -9.65576,-1.08972 -14.45605,-0.99316zM136.51868,33.14685c-1.37939,0.05518 -2.64844,0.9242 -3.15881,2.28979c-0.6897,1.8346 0.2345,3.8623 2.06909,4.552c2.5105,0.93799 4.99341,2.01391 7.42114,3.22778c0.51038,0.26209 1.04834,0.38623 1.5863,0.38623c1.28284,0 2.52429,-0.70349 3.15881,-1.94495c0.86902,-1.72424 0.16553,-3.8623 -1.57251,-4.74512c-2.63464,-1.32422 -5.37964,-2.52429 -8.12464,-3.55884c-0.4552,-0.16553 -0.92419,-0.2207 -1.37939,-0.20691zM156.90613,44.76135c-0.89661,0.11035 -1.75183,0.56555 -2.35877,1.32422c-1.20007,1.54492 -0.93799,3.75195 0.60693,4.95203c2.35877,1.84839 4.63477,3.8761 6.74524,6.00037c28.92591,28.91211 28.92591,75.94946 0,104.86157c-1.37939,1.39319 -1.37939,3.61402 0,5.0072c0.6897,0.6759 1.6001,1.03455 2.5105,1.03455c0.89661,0 1.80701,-0.35864 2.4967,-1.03455c31.65711,-31.6709 31.65711,-83.20508 0,-114.87598c-2.33118,-2.31738 -4.81409,-4.52441 -7.39355,-6.55212c-0.77246,-0.59314 -1.72424,-0.82764 -2.60705,-0.71729zM91.75732,69.78357c-1.21387,-0.01379 -2.44153,0.28967 -3.57263,0.93799c-2.23462,1.25525 -3.57263,3.55884 -3.57263,6.1383v65.21777c0,2.57947 1.33801,4.88306 3.57263,6.1521c1.10352,0.62073 2.2898,0.92419 3.48987,0.92419c1.25525,0 2.4967,-0.33105 3.6278,-1.00696l54.4585,-32.60889c2.15186,-1.29663 3.44849,-3.55884 3.44849,-6.06934c0,-2.4967 -1.29663,-4.7727 -3.44849,-6.06934l-54.4585,-32.60889c-1.10352,-0.64832 -2.31738,-0.99316 -3.54504,-1.00696zM91.68836,76.85986l54.4585,32.60889l-54.4585,32.62268zM75.48047,167.36194c-1.37939,-0.16553 -2.77258,0.469 -3.48987,1.73804l-3.53125,6.11072c-0.97937,1.69665 -0.40002,3.84851 1.28284,4.82788c0.55176,0.31726 1.15869,0.469 1.76563,0.469c1.21387,0 2.40015,-0.63452 3.04846,-1.76562l3.53125,-6.11072c0.97937,-1.68286 0.41382,-3.84851 -1.28284,-4.82788c-0.42761,-0.2345 -0.86902,-0.38623 -1.32422,-0.44141zM143.45703,167.36194c-0.4552,0.05518 -0.9104,0.20691 -1.32422,0.44141c-1.69666,0.97937 -2.26221,3.14502 -1.28284,4.84168l3.53125,6.11072c0.64832,1.1311 1.83459,1.76563 3.04846,1.76563c0.60693,0 1.21387,-0.16553 1.76563,-0.48279c1.69666,-0.97937 2.26221,-3.13123 1.28284,-4.81409l-3.53125,-6.11072c-0.73108,-1.26904 -2.12427,-1.91736 -3.48987,-1.75183zM91.16418,174.24512c-1.3656,0.19312 -2.55188,1.17248 -2.93811,2.59326l-1.8208,6.828c-0.51038,1.87598 0.62073,3.80713 2.4967,4.3175c0.30347,0.08277 0.60693,0.11035 0.9242,0.11035c1.54492,0 2.97949,-1.03455 3.40711,-2.60705l1.83459,-6.828c0.49658,-1.87598 -0.62073,-3.82092 -2.4967,-4.3175c-0.469,-0.13794 -0.95178,-0.15173 -1.40698,-0.09656zM127.78711,174.24512c-0.4552,-0.05518 -0.93799,-0.04138 -1.42078,0.09656c-1.87598,0.49658 -2.99329,2.44153 -2.4967,4.3175l1.83459,6.828c0.42761,1.57251 1.84839,2.60705 3.40711,2.60705c0.31726,0 0.62073,-0.02759 0.9242,-0.11035c1.87598,-0.51038 3.00708,-2.44153 2.4967,-4.3175l-1.8208,-6.828c-0.38623,-1.42078 -1.57251,-2.40014 -2.92432,-2.59326zM109.46875,176.5625c-1.95874,0 -3.53125,1.57251 -3.53125,3.53125v7.0625c0,1.95874 1.57251,3.53125 3.53125,3.53125c1.95874,0 3.53125,-1.57251 3.53125,-3.53125v-7.0625c0,-1.95874 -1.57251,-3.53125 -3.53125,-3.53125z"/></g></g></g></svg>
